{"title":"When.the.Game.Stands.Tall.2014.WEBRiP.XviD.ReLeNTLesS","uid":11484278,"size":1371129129,"categoryP":"video","categoryS":"movies","magnet":"?xt=urn:btih:baf35d8afedde9a217f0c17e7c9cabbd8b235a8f&amp;dn=When.the.Game.Stands.Tall.2014.WEBRiP.XviD.ReLeNTLesS&amp;tr=udp%3A%2F%2Ftracker.openbittorrent.com%3A80&amp;tr=udp%3A%2F%2Fopen.demonii.com%3A1337&amp;tr=udp%3A%2F%2Ftracker.coppersurfer.tk%3A6969&amp;tr=udp%3A%2F%2Fexodus.desync.com%3A6969","seeders":2,"leechers":0,"uploader":"TvTeam","files":4,"time":1416207080,"description":" &lt;a href=&quot;http://www.torrenting.com&quot; rel=&quot;nofollow&quot; target=&quot;_NEW&quot;&gt;http://www.torrenting.com&lt;/a&gt;\n\nSign up is OPEN - for time being. Come and have fun.\n\n------------------------------------------------------------------P0STER\n[IMG]http://lookpic.com/O/i2/627/OxFuPGXE.jpeg[/IMG]\n\niMDB: http://www.imdb.com/title/tt2247476/\n\nGeneral\nComplete name                            : When.the.Game.Stands.Tall.2014.WEBRiP.XviD.ReLeNTLesS.avi\nFormat                                   : AVI\nFormat/Info                              : Audio Video Interleave\nFile size                                : 1.26 GiB\nDuration                                 : 1h 55mn\nOverall bit rate                         : 1 567 Kbps\n\nVideo\nID                                       : 0\nFormat                                   : MPEG-4 Visual\nFormat profile                           : Advanced Simple@L5\nFormat settings, BVOP                    : 1\nFormat settings, QPel                    : No\nFormat settings, GMC                     : No warppoints\nFormat settings, Matrix                  : Default (H.263)\nMuxing mode                              : Packed bitstream\nCodec ID                                 : XVID\nCodec ID/Hint                            : XviD\nDuration                                 : 1h 55mn\nBit rate                                 : 1 401 Kbps\nWidth                                    : 720 pixels\nHeight                                   : 384 pixels\nDisplay aspect ratio                     : 1.85:1\nFrame rate                               : 23.976 fps\nColor space                              : YUV\nChroma subsampling                       : 4:2:0\nBit depth                                : 8 bits\nScan type                                : Progressive\nCompression mode                         : Lossy\nBits/(Pixel*Frame)                       : 0.211\nStream size                              : 1.13 GiB (89%)\nWriting library                          : XviD 1.2.1 (UTC 2008-12-04)\n\nAudio\nID                                       : 1\nFormat                                   : MPEG Audio\nFormat version                           : Version 1\nFormat profile                           : Layer 3\nMode                                     : Joint stereo\nMode extension                           : MS Stereo\nCodec ID                                 : 55\nCodec ID/Hint                            : MP3\nDuration                                 : 1h 55mn\nBit rate mode                            : Constant\nBit rate                                 : 160 Kbps\nChannel(s)                               : 2 channels\nSampling rate                            : 48.0 KHz\nCompression mode                         : Lossy\nStream size                              : 132 MiB (10%)\nAlignment                                : Aligned on interleaves\nInterleave, duration                     : 167 ms (4.00 video frames)\nInterleave, preload duration             : 216 ms\nTitle                                    : Ygra.na.vysote.2014.Ptrack_2_\nWriting library                          : LAME3.99r\nEncoding settings                        : -m j -V 4 -q 2 -lowpass 17.5 -b 160\nSource                                         : Ygra.na.vysote.2014.P.WEB-DL/When.the.Game.Stands.Tall Russian WEB-DL\n\nPL0T\nThe journey of legendary football coach Bob Ladouceur, who took the De La Salle High School Spartans from obscurity to a 151-game winning streak that shattered all records for any American sport.\n\nCAST\nDirector: Thomas Carter\nWriters: Scott Marshall Smith (screenplay), Scott Marshall Smith (story)\nStars: Jim Caviezel, Alexander Ludwig, Michael Chiklis \n\nN0TES\nSource wasn't two clever but will have to do till BRay drops so take it or leave it. \n\nSCREENS\n[IMG]http://lookpic.com/O/i2/545/SJoYrtVh.png[/IMG]\n[IMG]http://lookpic.com/O/i2/530/Vj6loZQS.png[/IMG]\n[IMG]http://lookpic.com/O/i2/1464/Yyun8m0Z.png[/IMG]\n[IMG]http://lookpic.com/O/i2/1668/S8nh4osW.png[/IMG]\n[IMG]http://lookpic.com/O/i2/1311/NVTZF7bI.png[/IMG]\n[IMG]http://lookpic.com/O/i2/1921/OBZmB0BB.png[/IMG]\n\nTRAiLER\n\nGREETZ\n\nM0RPH, M00SE, MiLLENiUM, Anonymous, TuX, \n\nACAB, KingStoner, FooKas, 4PlayHD, \n\nGodFather, Cld.... \n\nKeep up the good work guyz","torrent":{"xt":"urn:btih:baf35d8afedde9a217f0c17e7c9cabbd8b235a8f","amp;dn":"When.the.Game.Stands.Tall.2014.WEBRiP.XviD.ReLeNTLesS","amp;tr":["udp%3A%2F%2Ftracker.openbittorrent.com%3A80","udp%3A%2F%2Fopen.demonii.com%3A1337","udp%3A%2F%2Ftracker.coppersurfer.tk%3A6969","udp%3A%2F%2Fexodus.desync.com%3A6969"],"infoHash":"baf35d8afedde9a217f0c17e7c9cabbd8b235a8f","infoHashBuffer":{"type":"Buffer","data":[186,243,93,138,254,221,233,162,23,240,193,126,124,156,171,189,139,35,90,143]},"announce":[],"urlList":[]}}